<?xml version="1.0" encoding="UTF-8" standalone="no"?>
<svg
   id="visual"
   viewBox="0 0 512 512"
   width="512"
   height="512"
   version="1.1"
   sodipodi:docname="stacked-steps-haikei.svg"
   inkscape:version="1.4 (e7c3feb100, 2024-10-09)"
   xmlns:inkscape="http://www.inkscape.org/namespaces/inkscape"
   xmlns:sodipodi="http://sodipodi.sourceforge.net/DTD/sodipodi-0.dtd"
   xmlns="http://www.w3.org/2000/svg"
   xmlns:svg="http://www.w3.org/2000/svg">
  <defs
     id="defs6" />
  <sodipodi:namedview
     id="namedview6"
     pagecolor="#ffffff"
     bordercolor="#000000"
     borderopacity="0.25"
     inkscape:showpageshadow="2"
     inkscape:pageopacity="0.0"
     inkscape:pagecheckerboard="0"
     inkscape:deskcolor="#d1d1d1"
     inkscape:zoom="2.2792969"
     inkscape:cx="255.3419"
     inkscape:cy="256"
     inkscape:window-width="2560"
     inkscape:window-height="1376"
     inkscape:window-x="0"
     inkscape:window-y="0"
     inkscape:window-maximized="1"
     inkscape:current-layer="visual" />
  <path
     d="M0 57L47 57L47 98L93 98L93 88L140 88L140 52L186 52L186 47L233 47L233 42L279 42L279 73L326 73L326 78L372 78L372 32L419 32L419 68L465 68L465 88L512 88L512 83L512 0L512 0L465 0L465 0L419 0L419 0L372 0L372 0L326 0L326 0L279 0L279 0L233 0L233 0L186 0L186 0L140 0L140 0L93 0L93 0L47 0L47 0L0 0Z"
     fill="#134c00"
     id="path1" />
  <path
     d="M0 211L47 211L47 175L93 175L93 277L140 277L140 231L186 231L186 196L233 196L233 144L279 144L279 221L326 221L326 180L372 180L372 196L419 196L419 247L465 247L465 155L512 155L512 252L512 81L512 86L465 86L465 66L419 66L419 30L372 30L372 76L326 76L326 71L279 71L279 40L233 40L233 45L186 45L186 50L140 50L140 86L93 86L93 96L47 96L47 55L0 55Z"
     fill="#316b0c"
     id="path2" />
  <path
     d="M0 349L47 349L47 375L93 375L93 359L140 359L140 308L186 308L186 303L233 303L233 334L279 334L279 318L326 318L326 375L372 375L372 339L419 339L419 324L465 324L465 354L512 354L512 390L512 250L512 153L465 153L465 245L419 245L419 194L372 194L372 178L326 178L326 219L279 219L279 142L233 142L233 194L186 194L186 229L140 229L140 275L93 275L93 173L47 173L47 209L0 209Z"
     fill="#4f8b1b"
     id="path3" />
  <path
     d="M0 405L47 405L47 411L93 411L93 421L140 421L140 370L186 370L186 349L233 349L233 400L279 400L279 380L326 380L326 446L372 446L372 405L419 405L419 349L465 349L465 405L512 405L512 416L512 388L512 352L465 352L465 322L419 322L419 337L372 337L372 373L326 373L326 316L279 316L279 332L233 332L233 301L186 301L186 306L140 306L140 357L93 357L93 373L47 373L47 347L0 347Z"
     fill="#70ad29"
     id="path4" />
  <path
     d="M0 477L47 477L47 467L93 467L93 457L140 457L140 452L186 452L186 446L233 446L233 472L279 472L279 436L326 436L326 487L372 487L372 482L419 482L419 482L465 482L465 467L512 467L512 472L512 414L512 403L465 403L465 347L419 347L419 403L372 403L372 444L326 444L326 378L279 378L279 398L233 398L233 347L186 347L186 368L140 368L140 419L93 419L93 409L47 409L47 403L0 403Z"
     fill="#93cf37"
     id="path5" />
  <path
     d="M0 513L47 513L47 513L93 513L93 513L140 513L140 513L186 513L186 513L233 513L233 513L279 513L279 513L326 513L326 513L372 513L372 513L419 513L419 513L465 513L465 513L512 513L512 513L512 470L512 465L465 465L465 480L419 480L419 480L372 480L372 485L326 485L326 434L279 434L279 470L233 470L233 444L186 444L186 450L140 450L140 455L93 455L93 465L47 465L47 475L0 475Z"
     fill="#b8f244"
     id="path6" />
  <ellipse
     style="fill:#f2f2f2;stroke-width:2.33095;paint-order:stroke fill markers"
     id="path7"
     cx="374.01886"
     cy="350.98541"
     rx="103.76007"
     ry="110.56042" />
</svg>
