<?xml version="1.0" encoding="UTF-8" standalone="no"?>
<svg
   viewBox="0 0 64 64"
   version="1.1"
   id="svg17"
   sodipodi:docname="tree3.svg"
   inkscape:version="1.4 (e7c3feb100, 2024-10-09)"
   xmlns:inkscape="http://www.inkscape.org/namespaces/inkscape"
   xmlns:sodipodi="http://sodipodi.sourceforge.net/DTD/sodipodi-0.dtd"
   xmlns="http://www.w3.org/2000/svg"
   xmlns:svg="http://www.w3.org/2000/svg">
  <defs
     id="defs1" />
  <sodipodi:namedview
     id="namedview1"
     pagecolor="#ffffff"
     bordercolor="#000000"
     borderopacity="0.25"
     inkscape:showpageshadow="2"
     inkscape:pageopacity="0.0"
     inkscape:pagecheckerboard="0"
     inkscape:deskcolor="#d1d1d1"
     inkscape:zoom="18.234375"
     inkscape:cx="31.972579"
     inkscape:cy="32"
     inkscape:window-width="2560"
     inkscape:window-height="1376"
     inkscape:window-x="0"
     inkscape:window-y="0"
     inkscape:window-maximized="1"
     inkscape:current-layer="svg17" />
  <g
     data-name="25-tree"
     id="g17"
     transform="matrix(0.99997287,0,0,0.80645161,0.22023418,4.7128285)">
    <path
       d="M 19,48.79 V 63 H 15 V 48.79 a 9.357,9.357 0 0 0 2,0.21 9.5,9.5 0 0 0 2,-0.21 z"
       style="fill:#714226"
       id="path1" />
    <path
       d="M 34,46.81 V 63 H 30 V 46.8 a 10.2,10.2 0 0 0 2,0.2 11.023,11.023 0 0 0 2,-0.19 z"
       style="fill:#7c4026"
       id="path2" />
    <path
       d="M 49,53 V 63 H 45 V 53 l 0.03,-0.18 a 10.87,10.87 0 0 0 3.94,0 z"
       style="fill:#9a6948"
       id="path3" />
    <path
       d="M 19,48.79 A 9.5,9.5 0 0 1 17,49 9.357,9.357 0 0 1 15,48.79 10.378,10.378 0 0 1 7,38.52 C 7,32.74 11.48,9 17,9 c 2.4,0 4.6,4.47 6.32,10 l 0.04,0.01 A 91.9,91.9 0 0 0 21,34.95 12.474,12.474 0 0 0 25.24,44.46 9.964,9.964 0 0 1 19,48.79 Z"
       style="fill:#004a2d"
       id="path4" />
    <path
       d="m 37,43.57 a 8.734,8.734 0 0 0 0.24,2.06 L 37,45.69 A 10.529,10.529 0 0 1 34,46.81 11.023,11.023 0 0 1 32,47 10.2,10.2 0 0 1 30,46.8 10.5,10.5 0 0 1 25.24,44.46 12.474,12.474 0 0 1 21,34.95 91.9,91.9 0 0 1 23.36,19.01 C 25.38,10.06 28.5,1 32,1 36.11,1 39.69,13.47 41.58,23.61 38.82,30.34 37,40.25 37,43.57 Z"
       style="fill:#009e60"
       id="path5" />
    <path
       d="M 41.58,23.61 C 43.14,19.8 45,17 47,17 c 5.52,0 10,21.36 10,26.57 a 9.6,9.6 0 0 1 -8.03,9.25 10.87,10.87 0 0 1 -3.94,0 A 9.772,9.772 0 0 1 37.24,45.63 8.734,8.734 0 0 1 37,43.57 c 0,-3.32 1.82,-13.23 4.58,-19.96 z"
       style="fill:#00e088"
       id="path6" />
    <path
       d="M 17,49 A 9.357,9.357 0 0 1 15,48.79 V 63 h 2 V 53 a 2,2 0 0 1 2,-2 V 48.79 A 9.5,9.5 0 0 1 17,49 Z"
       style="fill:#422716"
       id="path7" />
    <path
       d="m 17,53 v 10 h 2 V 51 a 2,2 0 0 0 -2,2 z"
       style="fill:#714226"
       id="path8" />
    <path
       d="m 32,51 v 12 h 2 V 49 a 2,2 0 0 0 -2,2 z"
       style="fill:#7c4026"
       id="path9" />
    <path
       d="M 32,47 A 10.2,10.2 0 0 1 30,46.8 V 63 h 2 V 51 a 2,2 0 0 1 2,-2 V 46.81 A 11.023,11.023 0 0 1 32,47 Z"
       style="fill:#59341e"
       id="path10" />
    <path
       d="m 48.97,52.82 a 10.87,10.87 0 0 1 -3.94,0 L 45,53 v 10 h 2 v -6 a 2,2 0 0 1 2,-2 v -2 z"
       style="fill:#7c4026"
       id="path11" />
    <path
       d="m 47,57 v 6 h 2 v -8 a 2,2 0 0 0 -2,2 z"
       style="fill:#9a6948"
       id="path12" />
    <path
       d="m 42,41 c 0,-7.008 1.965,-15.982 3.14,-20.723 A 3.98,3.98 0 0 1 48.2,17.344 2.5,2.5 0 0 0 47,17 c -2,0 -3.86,2.8 -5.42,6.61 C 38.82,30.34 37,40.25 37,43.57 a 8.734,8.734 0 0 0 0.24,2.06 9.772,9.772 0 0 0 7.79,7.19 10.87,10.87 0 0 0 3.94,0 9.733,9.733 0 0 0 7.88,-7.628 C 54.443,48.122 42,50.786 42,41 Z"
       style="fill:#00c477"
       id="path13" />
    <path
       d="m 41.58,23.61 c -0.5,-2.677 -1.117,-5.515 -1.83,-8.244 -1.524,0.872 -2.94,3.241 -4.17,6.244 a 64.339,64.339 0 0 0 -2.786,8.9 3.91,3.91 0 0 1 -7.695,-0.671 Q 25,28.52 25,27 C 25,18.712 28.973,8.154 30.933,3.451 A 3.974,3.974 0 0 1 33.114,1.3 2.341,2.341 0 0 0 32,1 c -3.5,0 -6.62,9.06 -8.64,18.01 A 91.9,91.9 0 0 0 21,34.95 12.474,12.474 0 0 0 25.24,44.46 10.5,10.5 0 0 0 30,46.8 10.2,10.2 0 0 0 32,47 c 0.276,0 0.549,-0.019 0.822,-0.041 A 11.417,11.417 0 0 0 34,46.81 10.529,10.529 0 0 0 37,45.69 l 0.24,-0.06 A 8.734,8.734 0 0 1 37,43.57 c 0,-3.32 1.82,-13.23 4.58,-19.96 z"
       style="fill:#007145"
       id="path14" />
    <path
       d="M 21,34.95 A 91.9,91.9 0 0 1 23.36,19.01 L 23.32,19 A 41.454,41.454 0 0 0 21.112,13.236 85.978,85.978 0 0 0 18.36,23.01 91.9,91.9 0 0 0 16,38.95 v 0.031 A 2,2 0 0 1 12.712,40.567 5.506,5.506 0 0 1 11,38 C 10.233,30.326 14.176,17.352 16.053,11.732 A 3.983,3.983 0 0 1 18.187,9.37 2.3,2.3 0 0 0 17,9 C 11.48,9 7,32.74 7,38.52 A 10.378,10.378 0 0 0 15,48.79 9.357,9.357 0 0 0 17,49 9.5,9.5 0 0 0 19,48.79 9.8,9.8 0 0 0 20.215,48.436 10.036,10.036 0 0 0 25.24,44.46 12.474,12.474 0 0 1 21,34.95 Z"
       style="fill:#003b24"
       id="path15" />
    <path
       d="m 47.89,18.336 a 2,2 0 0 0 -0.554,2.774 c 0.168,0.252 0.331,0.531 0.491,0.829 a 2,2 0 0 0 3.678,-0.356 12.884,12.884 0 0 0 -2.412,-3.575 1.977,1.977 0 0 0 -1.203,0.328 z m 3.071,5.747 a 2,2 0 0 0 -1.335,2.493 107.87,107.87 0 0 1 3.005,14.7 2,2 0 0 0 1.978,1.724 1.93,1.93 0 0 0 0.282,-0.02 2,2 0 0 0 1.7,-2.259 142.145,142.145 0 0 0 -1.441,-8.42 66.779,66.779 0 0 0 -2.422,-7.901 1.985,1.985 0 0 0 -1.767,-0.317 z"
       style="fill:#00ff9b"
       id="path16" />
    <path
       d="m 32.024,7.745 a 19.7,19.7 0 0 0 0.97,3.341 c 0.411,1.336 0.6,2.708 1.15,4.019 A 2.024,2.024 0 0 0 35.759,16.492 2,2 0 0 0 37.641,15.43 3.917,3.917 0 0 0 38,13.553 14.373,14.373 0 0 0 37.223,8.924 5.412,5.412 0 0 0 36,6.767 4.275,4.275 0 0 0 33.2,5.507 c -1.219,0.114 -1.251,1.601 -1.176,2.238 z"
       style="fill:#00c477"
       id="path17" />
  </g>
</svg>
