<?xml version="1.0" encoding="UTF-8" standalone="no"?>
<svg
   viewBox="0 0 64 64"
   version="1.1"
   id="svg24"
   sodipodi:docname="tree.svg"
   inkscape:version="1.4 (e7c3feb100, 2024-10-09)"
   xmlns:inkscape="http://www.inkscape.org/namespaces/inkscape"
   xmlns:sodipodi="http://sodipodi.sourceforge.net/DTD/sodipodi-0.dtd"
   xmlns="http://www.w3.org/2000/svg"
   xmlns:svg="http://www.w3.org/2000/svg">
   <g
      data-name="16-tree"
      id="g24"
      transform="matrix(0.83333919,0,0,0.80660942,5.3331108,6.1896723)">
      <path
         d="m 30,49 v 8 l -4.5,2.75 A 2.428,2.428 0 0 1 24.44,60 H 23.92 A 1.917,1.917 0 0 1 22.93,56.44 L 27,54 Z m 14,9.08 A 1.912,1.912 0 0 1 42.08,60 H 41.56 A 2.428,2.428 0 0 1 40.5,59.75 L 36,57 v -8 l 3,5 4.07,2.44 A 1.913,1.913 0 0 1 44,58.08 Z M 42.47,30.6 a 3,3 0 0 0 0.45,0.55 L 41,35 36,40 v -5 l 2,-2 1.57,-2.36 A 2.974,2.974 0 0 0 41,31 2.942,2.942 0 0 0 42.47,30.6 Z M 30,39 H 19 l -4,-3 0.19,-0.25 a 2.992,2.992 0 0 0 1.67,-1.89 c 0.03,-0.01 0.05,-0.02 0.08,-0.03 L 17,34 l 3,2 h 7.86 z"
         style="fill:#714226"
         id="path1" />
      <path
         d="M 27,30 V 20 A 2.966,2.966 0 0 0 29.19,19.03 3,3 0 0 0 31,20.82 V 29 l 5,6 v 8 a 3,3 0 0 0 0,6 v 8 l 3.13,2.42 A 1.954,1.954 0 0 1 40,61.04 v 0.01 A 1.946,1.946 0 0 1 38.05,63 H 36.81 A 1.961,1.961 0 0 1 35.43,62.43 L 33,60 30.57,62.43 A 1.961,1.961 0 0 1 29.19,63 H 27.95 A 1.946,1.946 0 0 1 26,61.05 v -0.01 a 1.954,1.954 0 0 1 0.87,-1.62 L 30,57 V 39 L 27.86,36 25,32 22.07,30.83 20,30 19.94,29.84 a 2.952,2.952 0 0 0 1.9,-1.9 L 22,28 Z"
         style="fill:#9a6948"
         id="path2" />
      <path
         d="m 19,39 h 11 v 6 A 2.987,2.987 0 0 0 24.81,42.97 2.984,2.984 0 0 0 19.18,43.02 1.1,1.1 0 0 0 19,43 3,3 0 0 0 16.76,47.99 C 14,47.89 14,46 14,46 12.34,46 11,45.66 11,44 a 1.993,1.993 0 0 1 2,-2 c -1.48,-0.53 -2,-1 -2,-3 a 3,3 0 0 0 3,-3 2.949,2.949 0 0 0 1.19,-0.25 L 15,36 Z m 6,-7 2.86,4 H 21 a 1.993,1.993 0 0 1 2,-2 c -0.55,0 -1,-1.34 -1,-3 l 0.07,-0.17 z m 17,7 A 3,3 0 0 0 39.17,41.01 0.915,0.915 0 0 0 39,41 3,3 0 0 0 36.18,43.02 1.1,1.1 0 0 0 36,43 v -3 l 5,-5 1.92,-3.85 a 2.976,2.976 0 0 0 4.08,0.08 2.965,2.965 0 0 0 2,0.77 2.986,2.986 0 0 0 5.02,2.2 3.008,3.008 0 0 0 0.97,2 A 2.881,2.881 0 0 1 53,39 H 52.23 A 2.972,2.972 0 0 0 47.81,38.97 2.984,2.984 0 0 0 42.18,39.02 1.1,1.1 0 0 0 42,39 Z M 34,24 a 3,3 0 0 0 3,3 2.955,2.955 0 0 0 1.32,-0.32 A 2.955,2.955 0 0 0 38,28 3,3 0 0 0 39.57,30.64 L 38,33 36,35 31,29 V 20.82 A 2.772,2.772 0 0 0 32,21 2.9,2.9 0 0 0 34.01,20.2 2.921,2.921 0 0 0 34.78,22 2.974,2.974 0 0 0 34,24 Z M 18,21 c 0,-2.07 0.78,-3.77 1.79,-3.98 A 2.967,2.967 0 0 0 24.02,17.2 3,3 0 0 0 27,20 V 30 L 22,28 21.84,27.94 A 2.653,2.653 0 0 0 22,27 2.94,2.94 0 0 0 21.58,25.5 2.94,2.94 0 0 0 22,24 3,3 0 0 0 19,21 2.9,2.9 0 0 0 18.06,21.16 Z"
         style="fill:#2f5224"
         id="path3" />
      <path
         d="M 54.99,36.2 A 3.008,3.008 0 0 1 54.02,34.2 2.986,2.986 0 0 1 49,32 2.965,2.965 0 0 1 47,31.23 2.94,2.94 0 0 0 48,29 c 0,-0.06 -0.02,-0.13 -0.02,-0.19 A 2.887,2.887 0 0 0 49,29 2.994,2.994 0 0 0 51.78,24.88 2.977,2.977 0 0 0 53.83,23 H 54 a 3.232,3.232 0 0 1 3,-2 3,3 0 0 1 3,3 3.193,3.193 0 0 1 -0.09,0.7 A 2.986,2.986 0 0 1 61,27 3.193,3.193 0 0 1 60.91,27.7 2.976,2.976 0 0 1 59.78,32.88 2.994,2.994 0 0 1 57,37 2.886,2.886 0 0 1 54.99,36.2 Z"
         style="fill:#4e9943"
         id="path4" />
      <path
         d="M 52.23,39 A 2.965,2.965 0 0 1 53,41 3,3 0 0 1 50,44 3,3 0 0 1 47,47 3.1,3.1 0 0 1 46.31,46.92 3,3 0 0 0 44,42 2.966,2.966 0 0 0 41.81,42.97 2.982,2.982 0 0 0 39.17,41.01 3,3 0 0 1 42,39 a 1.1,1.1 0 0 1 0.18,0.02 2.984,2.984 0 0 1 5.63,-0.05 2.972,2.972 0 0 1 4.42,0.03 z"
         style="fill:#44853b"
         id="path5" />
      <path
         d="M 16.76,47.99 A 3,3 0 0 1 19,43 1.1,1.1 0 0 1 19.18,43.02 2.984,2.984 0 0 1 24.81,42.97 2.994,2.994 0 1 1 27,48 2.993,2.993 0 0 1 21.02,48.2 2.971,2.971 0 0 1 16.76,47.99 Z"
         style="fill:#4f9a44"
         id="path6" />
      <path
         d="M 53.83,23 A 2.977,2.977 0 0 1 51.78,24.88 2.994,2.994 0 0 1 49,29 2.887,2.887 0 0 1 47.98,28.81 C 47.98,28.87 48,28.94 48,29 A 2.991,2.991 0 0 1 42.92,31.15 3,3 0 0 1 42.47,30.6 2.942,2.942 0 0 1 41,31 2.977,2.977 0 0 1 38.32,26.68 2.955,2.955 0 0 1 37,27 2.987,2.987 0 0 1 34.78,22 2.921,2.921 0 0 1 34.01,20.2 2.942,2.942 0 0 0 34.82,18.98 1.1,1.1 0 0 0 35,19 3,3 0 0 0 37.82,16.98 1.1,1.1 0 0 0 38,17 2.995,2.995 0 0 0 38.94,11.16 L 39,11 v -1 a 3,3 0 0 1 6,0 3.182,3.182 0 0 1 -0.16,0.93 2.993,2.993 0 0 1 4.94,3.19 2.969,2.969 0 0 1 1.42,4.9 2.992,2.992 0 0 1 2.63,3.98 z"
         style="fill:#44853b"
         id="path7" />
      <path
         d="M 47,45 A 2.991,2.991 0 0 1 44,48 2.993,2.993 0 0 1 38.02,48.2 2.994,2.994 0 1 1 36,43 1.1,1.1 0 0 1 36.18,43.02 3,3 0 0 1 39,41 0.915,0.915 0 0 1 39.17,41.01 2.982,2.982 0 0 1 41.81,42.97 2.987,2.987 0 0 1 47,45 Z"
         style="fill:#8ee05b"
         id="path8" />
      <path
         d="M 16.86,33.86 A 2.992,2.992 0 0 1 15.19,35.75 2.949,2.949 0 0 1 14,36 3,3 0 0 1 8,36 3,3 0 0 1 5,33 3,3 0 0 1 5,27 3,3 0 0 1 8,24 2.942,2.942 0 0 1 9.47,24.4 2.952,2.952 0 0 1 11.22,23.12 2.993,2.993 0 1 1 16.98,21.8 2.952,2.952 0 0 1 18.06,21.16 2.9,2.9 0 0 1 19,21 3,3 0 0 1 22,24 2.94,2.94 0 0 1 21.58,25.5 2.94,2.94 0 0 1 22,27 2.653,2.653 0 0 1 21.84,27.94 2.952,2.952 0 0 1 19.94,29.84 2.653,2.653 0 0 1 19,30 c -0.06,0 -0.13,-0.02 -0.19,-0.02 A 2.887,2.887 0 0 1 19,31 2.979,2.979 0 0 1 16.94,33.83 c -0.03,0.01 -0.05,0.02 -0.08,0.03 z M 34.01,20.2 A 2.9,2.9 0 0 1 32,21 2.772,2.772 0 0 1 31,20.82 3,3 0 0 1 29.19,19.03 2.977,2.977 0 0 1 24.02,17.2 3,3 0 0 1 19,15 c 0,-0.06 0.02,-0.13 0.02,-0.19 A 2.887,2.887 0 0 1 18,15 3,3 0 0 1 18,9 3.182,3.182 0 0 1 18.93,9.16 2.9890509,2.9890509 0 0 1 23.02,4.8 3,3 0 0 1 26,2 2.942,2.942 0 0 1 27.47,2.4 3,3 0 0 1 33,4 2.994,2.994 0 0 1 35.78,8.12 2.974,2.974 0 0 1 38,11 2.653,2.653 0 0 1 38.94,11.16 2.995,2.995 0 0 1 38,17 1.1,1.1 0 0 1 37.82,16.98 3,3 0 0 1 35,19 1.1,1.1 0 0 1 34.82,18.98 2.942,2.942 0 0 1 34.01,20.2 Z"
         style="fill:#7bc24f"
         id="path9" />
      <path
         d="M 54.733,32 A 2.673,2.673 0 0 0 54.484,30.88 3.065,3.065 0 0 0 57,28 a 2.866,2.866 0 0 0 -1.235,-2.3 2.693,2.693 0 0 0 -1.134,-3 2.824,2.824 0 0 0 0.1,-0.7 c 0,-0.027 -0.008,-0.053 -0.009,-0.08 A 2.781,2.781 0 0 0 54,23 H 53.83 A 2.977,2.977 0 0 1 51.78,24.88 2.994,2.994 0 0 1 49,29 2.887,2.887 0 0 1 47.98,28.81 C 47.98,28.87 48,28.94 48,29 A 2.94,2.94 0 0 1 47,31.23 2.965,2.965 0 0 0 49,32 2.986,2.986 0 0 0 51.687,34.969 3.156,3.156 0 0 0 54.733,32 Z"
         style="fill:#44853b"
         id="path10" />
      <path
         d="M 46.31,43.92 A 3,3 0 0 1 44,45 2.993,2.993 0 0 1 38.02,45.2 2.966,2.966 0 0 1 33.415,44.5 2.985,2.985 0 0 0 38.02,48.2 2.993,2.993 0 0 0 44,48 2.981,2.981 0 0 0 46.592,43.513 2.949,2.949 0 0 1 46.31,43.92 Z"
         style="fill:#7bc24f"
         id="path11" />
      <path
         d="M 29.31,43.92 A 3,3 0 0 1 27,45 2.993,2.993 0 0 1 21.02,45.2 2.966,2.966 0 0 1 16.415,44.5 2.985,2.985 0 0 0 21.02,48.2 2.993,2.993 0 0 0 27,48 2.981,2.981 0 0 0 29.592,43.513 2.949,2.949 0 0 1 29.31,43.92 Z"
         style="fill:#44853b"
         id="path12" />
      <path
         d="M 38.293,35.707 39,35 39.724,33.553 A 1,1 0 0 1 40.618,33 H 42 l 0.923,-1.85 A 3,3 0 0 1 42.473,30.6 2.942,2.942 0 0 1 41,31 2.974,2.974 0 0 1 39.57,30.64 L 38,33 36,35 v 5 l 2,-2 v -1.586 a 1,1 0 0 1 0.293,-0.707 z M 26.214,36 a 1.993,1.993 0 0 1 -1.989,2 h -4.811 a 1,1 0 0 1 -0.707,-0.293 l -0.48,-0.48 A 2,2 0 0 1 18.005,34.67 L 17,34 16.94,33.83 c -0.03,0.01 -0.05,0.02 -0.08,0.03 a 2.992,2.992 0 0 1 -1.67,1.89 L 15,36 19,39 H 30 L 27.86,36 Z M 28,55.382 a 1,1 0 0 1 -0.553,0.894 l -4,2 A 1,1 0 0 1 22.047,57.687 1.9,1.9 0 0 0 22,58.08 1.92,1.92 0 0 0 23.92,60 h 0.52 A 2.428,2.428 0 0 0 25.5,59.75 L 30,57 v -8 l -2,3.333 z m 14.553,2.894 -4,-2 A 1,1 0 0 1 38,55.382 V 52.333 L 36,49 v 8 l 4.5,2.75 A 2.428,2.428 0 0 0 41.56,60 h 0.52 A 1.912,1.912 0 0 0 44,58.08 1.9,1.9 0 0 0 43.949,57.687 1,1 0 0 1 42.553,58.276 Z"
         style="fill:#531a0f"
         id="path13" />
      <path
         d="M 22.07,30.83 25,32 27.86,36 30,39 v 18 a 2,2 0 0 0 2,-2 V 37.667 a 2,2 0 0 0 -0.4,-1.2 L 29.4,33.533 A 2,2 0 0 1 29,32.333 V 25 a 2,2 0 0 1 2,-2 V 20.82 A 3,3 0 0 1 29.19,19.03 2.966,2.966 0 0 1 27,20 V 31 L 23.19,29.476 A 0.98,0.98 0 0 1 22.627,28.251 L 22,28 21.84,27.94 a 2.952,2.952 0 0 1 -1.9,1.9 L 20,30 Z"
         style="fill:#6f3529"
         id="path14" />
      <path
         d="m 31.586,32.586 1.828,1.828 A 2,2 0 0 1 34,35.828 v 7.948 A 2.981,2.981 0 0 1 36,43 v -8 l -5,-6 v 2.172 a 2,2 0 0 0 0.586,1.414 z"
         style="fill:#af7a58"
         id="path15" />
      <path
         d="m 36,51 v -2 a 3,3 0 0 1 -3,-3 v 2 a 3,3 0 0 0 3,3 z m 3.995,10 h -1.167 a 2,2 0 0 1 -1.414,-0.586 l -1,-1 a 4.828,4.828 0 0 0 -6.828,0 l -1,1 A 2,2 0 0 1 27.172,61 h -1.167 v 0.05 A 1.946,1.946 0 0 0 27.95,63 h 1.24 a 1.961,1.961 0 0 0 1.38,-0.57 L 33,60 35.43,62.43 A 1.961,1.961 0 0 0 36.81,63 h 1.24 A 1.946,1.946 0 0 0 40,61.05 V 61.04 C 40,61.026 39.995,61.014 39.995,61 Z"
         style="fill:#6f3529"
         id="path16" />
      <path
         d="M 38,11 A 2.974,2.974 0 0 0 35.78,8.12 2.994,2.994 0 0 0 33,4 3,3 0 0 0 27.47,2.4 2.942,2.942 0 0 0 26,2 3,3 0 0 0 23.02,4.8 2.981,2.981 0 0 0 18.784,8.99 2.963,2.963 0 0 1 23.02,8.8 3,3 0 0 1 26,6 2.942,2.942 0 0 1 27.47,6.4 3,3 0 0 1 33,8 3,3 0 0 1 36,11 2.915,2.915 0 0 1 35.837,11.929 2.988,2.988 0 0 1 38,11 Z"
         style="fill:#8ee05b"
         id="path17" />
      <path
         d="M 38.94,11.16 A 2.653,2.653 0 0 0 38,11 3.049,3.049 0 0 0 37.966,10.591 2.542,2.542 0 0 1 36.577,11 1,1 0 0 1 36.432,10.985 2.414,2.414 0 0 1 34.154,12.5 1.032,1.032 0 0 1 34.008,12.485 2.2,2.2 0 0 1 33.354,13.4 2.444,2.444 0 0 1 31.731,14 2.392,2.392 0 0 1 30.923,13.865 2.348,2.348 0 0 1 29.461,12.522 2.48,2.48 0 0 1 27.692,13.25 2.351,2.351 0 0 1 25.285,11.15 2.507,2.507 0 0 1 23.654,11.75 2.48,2.48 0 0 1 21.869,11.015 2.141,2.141 0 0 1 21.231,9.5 c 0,-0.045 0.016,-0.1 0.016,-0.143 A 2.5,2.5 0 0 1 18.461,8.563 3.118,3.118 0 0 0 18.93,9.163 3.182,3.182 0 0 0 18,9 a 3,3 0 0 0 0,6 2.887,2.887 0 0 0 1.02,-0.19 C 19.02,14.87 19,14.94 19,15 a 2.986,2.986 0 0 0 5.02,2.2 2.977,2.977 0 0 0 5.17,1.83 A 3,3 0 0 0 31,20.82 2.772,2.772 0 0 0 32,21 2.9,2.9 0 0 0 34.01,20.2 2.942,2.942 0 0 0 34.82,18.98 1.1,1.1 0 0 0 35,19 3,3 0 0 0 37.82,16.98 1.1,1.1 0 0 0 38,17 2.995,2.995 0 0 0 38.94,11.16 Z"
         style="fill:#5cb34f"
         id="path18" />
      <path
         d="M 38,13 A 1.1,1.1 0 0 1 37.82,12.98 3,3 0 0 1 35,15 1.1,1.1 0 0 1 34.82,14.98 2.942,2.942 0 0 1 34.01,16.2 2.9,2.9 0 0 1 32,17 2.772,2.772 0 0 1 31,16.82 3,3 0 0 1 29.19,15.03 2.977,2.977 0 0 1 24.02,13.2 3,3 0 0 1 19,11 c 0,-0.06 0.02,-0.13 0.02,-0.19 A 2.887,2.887 0 0 1 18,11 2.982,2.982 0 0 1 15.776,10 2.99,2.99 0 0 0 18,15 2.887,2.887 0 0 0 19.02,14.81 C 19.02,14.87 19,14.94 19,15 a 2.986,2.986 0 0 0 5.02,2.2 2.977,2.977 0 0 0 5.17,1.83 A 3,3 0 0 0 31,20.82 2.772,2.772 0 0 0 32,21 2.9,2.9 0 0 0 34.01,20.2 2.942,2.942 0 0 0 34.82,18.98 1.1,1.1 0 0 0 35,19 3,3 0 0 0 37.82,16.98 1.1,1.1 0 0 0 38,17 3,3 0 0 0 41,14 2.966,2.966 0 0 0 40.224,12 2.982,2.982 0 0 1 38,13 Z"
         style="fill:#4f9a44"
         id="path19" />
      <path
         d="M 9.47,27.4 A 2.952,2.952 0 0 1 11.22,26.12 2.993,2.993 0 1 1 16.98,24.8 2.952,2.952 0 0 1 18.06,24.16 2.9,2.9 0 0 1 19,24 2.985,2.985 0 0 1 21.583,25.5 2.942,2.942 0 0 0 22,24 3,3 0 0 0 19,21 2.9,2.9 0 0 0 18.06,21.16 2.952,2.952 0 0 0 16.98,21.8 2.993,2.993 0 1 0 11.22,23.12 2.952,2.952 0 0 0 9.47,24.4 2.942,2.942 0 0 0 8,24 3,3 0 0 0 5,26.957 1.389,1.389 0 0 0 5.166,27.117 2.217,2.217 0 0 0 6.435,27.448 2.923,2.923 0 0 1 9.47,27.4 Z"
         style="fill:#8ee05b"
         id="path20" />
      <path
         d="m 16.016,29.761 a 3.389,3.389 0 0 1 -0.045,1.49 2.07,2.07 0 0 1 -1.429,1.185 4.059,4.059 0 0 1 -1.1,0.127 c -0.179,0 -0.357,-0.011 -0.536,-0.021 C 12.672,32.529 12.69,32.52 12.588,32.71 A 2.221,2.221 0 0 1 11.257,33.794 3.924,3.924 0 0 1 9.202,33.806 4.282,4.282 0 0 1 7.265,32.827 2.491,2.491 0 0 1 6.421,31.009 5.3,5.3 0 0 1 3.338,30.449 2.8,2.8 0 0 1 2.152,29.108 2.964,2.964 0 0 0 5,33 a 3,3 0 0 0 3,3 3,3 0 0 0 6,0 2.949,2.949 0 0 0 1.19,-0.25 2.992,2.992 0 0 0 1.67,-1.89 c 0.03,-0.01 0.05,-0.02 0.08,-0.03 A 2.979,2.979 0 0 0 19,31 2.892,2.892 0 0 0 18.811,29.983 C 18.427,30 17.568,30.134 17.453,30.14 a 2.127,2.127 0 0 1 -1.437,-0.379 z"
         style="fill:#4f9a44"
         id="path21" />
      <path
         d="M 21.84,27.94 A 2.653,2.653 0 0 0 22,27 c 0,-0.088 -0.011,-0.173 -0.019,-0.259 a 2.429,2.429 0 0 1 -2.649,0.954 c -0.311,-0.08 -1.039,-0.325 -1.106,-0.683 a 1.416,1.416 0 0 1 -1.451,1.147 4.11,4.11 0 0 1 -1.914,-0.638 2.025,2.025 0 0 1 -3.578,1.584 1.413,1.413 0 0 1 -1.06,0.982 A 3.025,3.025 0 0 1 8.72,30 2.486,2.486 0 0 1 7.172,29.036 2.919,2.919 0 0 1 6.9,27.419 2.547,2.547 0 0 1 5.169,27.119 1.389,1.389 0 0 1 5,26.957 V 27 a 2.986,2.986 0 0 0 -2.851,2.108 2.8,2.8 0 0 0 1.186,1.341 5.3,5.3 0 0 0 3.083,0.56 2.491,2.491 0 0 0 0.844,1.818 4.282,4.282 0 0 0 1.937,0.979 3.924,3.924 0 0 0 2.055,-0.012 2.221,2.221 0 0 0 1.331,-1.084 c 0.1,-0.19 0.084,-0.181 0.318,-0.168 0.179,0.01 0.357,0.021 0.536,0.021 a 4.059,4.059 0 0 0 1.1,-0.127 2.07,2.07 0 0 0 1.429,-1.185 3.389,3.389 0 0 0 0.045,-1.49 2.127,2.127 0 0 0 1.437,0.379 c 0.115,-0.006 0.974,-0.14 1.358,-0.157 h 0.025 c 0.091,0 0.159,0 0.165,0.017 a 2.653,2.653 0 0 0 0.94,-0.16 2.952,2.952 0 0 0 1.902,-1.9 z"
         style="fill:#5cb34f"
         id="path22" />
      <path
         d="m 49.162,24.411 c -0.247,0.2 -0.247,0.782 -0.368,1.064 A 3.305,3.305 0 0 1 47.246,27.3 3.987,3.987 0 0 1 45.141,27.473 3.411,3.411 0 0 1 43,26.658 a 3.243,3.243 0 0 1 -0.634,-2.419 2.635,2.635 0 0 1 -1.953,-3.04 7.984,7.984 0 0 0 2.229,-0.959 4.449,4.449 0 0 0 1.527,-1.466 4.077,4.077 0 0 0 0.3,-3.052 10.717,10.717 0 0 0 -1.338,-2.834 1.37,1.37 0 0 1 -0.215,-0.485 1.787,1.787 0 0 1 0.189,-0.828 A 3.478,3.478 0 0 0 42.354,8.295 5.287,5.287 0 0 0 41.019,7.179 2.986,2.986 0 0 0 39,10 v 1 l -0.06,0.16 A 2.995,2.995 0 0 1 38,17 1.1,1.1 0 0 1 37.82,16.98 3,3 0 0 1 35,19 1.1,1.1 0 0 1 34.82,18.98 2.942,2.942 0 0 1 34.01,20.2 2.921,2.921 0 0 0 34.78,22 2.982,2.982 0 0 0 38.32,26.68 2.955,2.955 0 0 0 38,28 a 2.993,2.993 0 0 0 3,3 2.942,2.942 0 0 0 1.47,-0.4 3,3 0 0 0 0.45,0.55 A 3,3 0 0 0 48,29 c 0,-0.06 -0.02,-0.13 -0.02,-0.19 A 2.887,2.887 0 0 0 49,29 3,3 0 0 0 52,26 2.961,2.961 0 0 0 51.8,24.936 c -0.359,-0.058 -0.716,-0.13 -1.067,-0.219 -0.385,-0.096 -1.26,-0.56 -1.571,-0.306 z"
         style="fill:#3b7832"
         id="path23" />
      <path
         d="m 51.2,19.02 a 2.969,2.969 0 0 0 -1.42,-4.9 2.985,2.985 0 0 0 -4.842,-3.274 9.544,9.544 0 0 1 -0.61,1.825 8.971,8.971 0 0 1 2.388,1.335 4.294,4.294 0 0 1 1.49,2.25 4.806,4.806 0 0 1 -0.335,2.866 5.414,5.414 0 0 1 1.4,5.24 c 0.37,-0.114 1.115,0.268 1.461,0.355 0.346,0.087 0.708,0.161 1.067,0.219 -0.007,-0.018 -0.01,-0.038 -0.017,-0.056 a 2.982,2.982 0 0 0 -0.58,-5.86 z"
         style="fill:#52a147"
         id="path24" />
   </g>
</svg>